<?xml version="1.0"?>
<svg xmlns="http://www.w3.org/2000/svg" xmlns:xlink="http://www.w3.org/1999/xlink" xmlns:svgjs="http://svgjs.com/svgjs" version="1.1" x="0" y="0" viewBox="0 0 512 512" style="enable-background:new 0 0 512 512" xml:space="preserve" class=""><g><g xmlns="http://www.w3.org/2000/svg"><path d="m503.204 357.512-57.498-57.498c65.951-138.391-35.418-300.012-189.705-300.012-154.019 0-255.788 161.343-189.705 300.012l-57.498 57.498c-16.002 16.002-9.198 43.311 12.5 49.919l63.868 19.399 19.399 63.868c6.581 21.612 33.834 28.556 49.919 12.5l83.938-83.938c11.539.957 23.225.989 35.159 0l83.938 83.938c16.027 16.027 43.324 9.156 49.919-12.5l19.399-63.868 63.868-19.399c21.732-6.618 28.474-33.944 12.499-49.919zm-369.929 124.467-19.409-63.868c-2.91-9.6-10.38-17.07-19.979-19.989l-63.868-19.399 51.699-51.699c28.079 41.679 70.698 72.788 120.527 85.988zm-29.88-176.635c-75.366-120.018 12.318-275.343 152.606-275.343 141.421 0 227.295 156.402 152.606 275.342-70.717 112.781-234.505 112.766-305.212.001zm314.722 92.777c-9.6 2.92-17.07 10.39-19.989 19.989l-19.399 63.868-68.968-68.968c49.829-13.2 92.447-44.309 120.527-85.988l51.699 51.699z" fill="#d1403f" data-original="#000000" style="" class=""/><path d="m256.001 60.001c-100.38 0-172.95 97.436-143.476 193.785 25.112 82.286 114.191 126.007 193.875 97.497 58.037-20.771 99.597-76.295 99.597-141.286 0-82.708-67.288-149.996-149.996-149.996zm-80.897 238.533c-80.998-73.93-27.713-208.534 80.897-208.534 73.917 0 130.184 66.511 118.507 138.816-14.691 93.722-128.767 134.357-199.404 69.718z" fill="#d1403f" data-original="#000000" style="" class=""/><path d="m301.51 169.431-66.116 49.076-22.904-24.404c-5.67-6.042-15.161-6.343-21.202-.673-6.04 5.669-6.342 15.162-.672 21.202l32.049 34.149c5.216 5.559 13.766 6.316 19.877 1.78l76.848-57.041c6.652-4.937 8.041-14.333 3.104-20.985-4.937-6.651-14.332-8.041-20.984-3.104z" fill="#d1403f" data-original="#000000" style="" class=""/></g></g></svg>
