<?xml version="1.0"?>
<svg xmlns="http://www.w3.org/2000/svg" xmlns:xlink="http://www.w3.org/1999/xlink" xmlns:svgjs="http://svgjs.com/svgjs" version="1.1" x="0" y="0" viewBox="0 0 501.367 501.367" style="enable-background:new 0 0 512 512" xml:space="preserve"><g><g xmlns="http://www.w3.org/2000/svg" id="XMLID_2534_"><path id="XMLID_2538_" d="m501.367 390.662c-7.165-1.041-51.996-7.555-59.209-8.603-3.205-6.493-23.253-47.115-26.479-53.65v.001l-.001.001c-3.215 6.515-23.25 47.11-26.477 53.648-6.446.938-43.355 6.3-55.958 8.131 8.938-8.712 16.928-16.501 20.637-20.117-19.312-2.806-59.916-8.706-71.312-10.361-8.636-17.5-26.794-54.293-31.891-64.619-8.636 17.499-26.795 54.293-31.891 64.619-19.311 2.806-59.914 8.706-71.31 10.361 5.318 5.184 12.869 12.544 20.636 20.115-12.593-1.83-49.461-7.187-55.946-8.129-3.205-6.493-23.253-47.115-26.478-53.652l-.005.011-.005.01c-3.215 6.515-23.243 47.095-26.469 53.632-7.167 1.04-51.996 7.553-59.209 8.602 5.185 5.054 37.624 36.674 42.844 41.762-1.224 7.137-8.882 51.786-10.114 58.971 6.43-3.381 46.494-24.445 52.947-27.838l.005-.003.005-.003c6.409 3.37 46.506 24.451 52.958 27.844-1.224-7.138-8.883-51.787-10.115-58.971 4.841-4.72 33.436-32.592 41.456-40.408 12.051 11.746 24.234 23.622 29.089 28.355-3.298 19.232-10.234 59.672-12.181 71.021 17.273-9.08 53.59-28.174 63.782-33.531 17.273 9.08 53.59 28.174 63.782 33.531-3.299-19.232-10.235-59.672-12.182-71.02 7.253-7.069 18.652-18.182 29.097-28.362 7.993 7.791 36.588 35.663 41.461 40.414-1.224 7.137-8.882 51.786-10.114 58.971 6.409-3.37 46.504-24.45 52.956-27.843h.001v-.001c6.409 3.37 46.506 24.451 52.958 27.844-1.224-7.138-8.882-51.787-10.114-58.971 5.187-5.055 37.626-36.675 42.846-41.762z" fill="#d1403f" data-original="#000000" style=""/><path id="XMLID_2638_" d="m120.677 264.973v-15c0-24.882 7.032-48.15 19.205-67.932-5.061-3.48-10.504-6.398-16.226-8.686 8.92-8.229 14.521-20.005 14.521-33.069 0-24.813-20.187-45-45-45-24.812 0-45 20.187-45 45 0 13.057 5.594 24.827 14.505 33.055-30.434 12.154-52.005 41.912-52.005 76.633v15h82.5 27.5z" fill="#d1403f" data-original="#000000" style=""/><path id="XMLID_2639_" d="m380.677 249.973v15h27.5 82.5v-15c0-34.72-21.57-64.479-52.005-76.633 8.911-8.228 14.505-19.998 14.505-33.055 0-24.813-20.187-45-45-45-24.814 0-45 20.188-45 45 0 13.064 5.6 24.841 14.521 33.069-5.73 2.292-11.172 5.212-16.226 8.686 12.173 19.782 19.205 43.051 19.205 67.933z" fill="#d1403f" data-original="#000000" style=""/><path id="XMLID_2731_" d="m350.67 249.973h.007c0-42.783-26.87-79.284-64.653-93.565 25.002-12.872 42.153-38.93 42.153-68.935 0-42.732-34.767-77.5-77.5-77.5s-77.5 34.768-77.5 77.5c0 30.005 17.151 56.063 42.153 68.935-37.783 14.281-64.653 50.782-64.653 93.565v15h199.993z" fill="#d1403f" data-original="#000000" style=""/></g></g></svg>
