<?xml version="1.0"?>
<svg xmlns="http://www.w3.org/2000/svg" xmlns:xlink="http://www.w3.org/1999/xlink" xmlns:svgjs="http://svgjs.com/svgjs" version="1.1" x="0" y="0" viewBox="0 0 448 448" style="enable-background:new 0 0 512 512" xml:space="preserve"><g><path xmlns="http://www.w3.org/2000/svg" d="m0 174.65625 40 11.421875v-42.78125l-40 11.421875zm0 0" fill="#1bb8c2" data-original="#000000" style=""/><path xmlns="http://www.w3.org/2000/svg" d="m141.839844 19.527344 11.320312 11.320312-9.28125 9.273438 48.976563 48.96875 20.402343-20.402344-68.691406-68.6875-20.398437 20.398438 8.398437 8.410156zm0 0" fill="#1bb8c2" data-original="#000000" style=""/><path xmlns="http://www.w3.org/2000/svg" d="m248 188.6875h24v-48h-159.433594v-16h44.113282l24.296874-24.289062-68.6875-68.6875-26.066406 26.066406c-18.960937 18.96875-18.960937 49.71875 0 68.6875 2.453125 2.289062 3.308594 5.816406 2.175782 8.976562-1.082032 3.070313-3.945313 5.15625-7.199219 5.246094h-25.199219v48zm-160-16h-16v-16h16zm-2.65625-96.65625 25-25 11.3125 11.3125-25 25zm82.65625 96.65625h-64v-16h64zm0 0" fill="#1bb8c2" data-original="#000000" style=""/><path xmlns="http://www.w3.org/2000/svg" d="m198.222656 106.34375c-.511718.449219-1.082031.828125-1.695312 1.128906l-17.214844 17.214844h36.6875v-16h-16v-4.121094zm0 0" fill="#1bb8c2" data-original="#000000" style=""/><path xmlns="http://www.w3.org/2000/svg" d="m288 140.6875h16v48h-16zm0 0" fill="#1bb8c2" data-original="#000000" style=""/><path xmlns="http://www.w3.org/2000/svg" d="m408 148.097656-88-6.769531v46.71875l88-6.765625zm0 0" fill="#1bb8c2" data-original="#000000" style=""/><path xmlns="http://www.w3.org/2000/svg" d="m424 388.6875v-96c0-30.925781-25.070312-56-56-56s-56 25.074219-56 56v96c0 22.09375-17.910156 40-40 40s-40-17.90625-40-40v-24h-16v24c0 30.929688 25.070312 56 56 56s56-25.070312 56-56v-96c0-22.089844 17.910156-40 40-40s40 17.910156 40 40v96c.054688 24.734375 16.304688 46.507812 40 53.601562v-16.992187c-14.558594-6.355469-23.980469-20.722656-24-36.609375zm0 0" fill="#1bb8c2" data-original="#000000" style=""/><path xmlns="http://www.w3.org/2000/svg" d="m208 332.6875h32v16h-32zm0 0" fill="#1bb8c2" data-original="#000000" style=""/><path xmlns="http://www.w3.org/2000/svg" d="m424 132.6875v64h24v-64zm0 0" fill="#1bb8c2" data-original="#000000" style=""/><path xmlns="http://www.w3.org/2000/svg" d="m216 316.6875h16v-16h16v16h16v-32h-80v32h16v-16h16zm0 0" fill="#1bb8c2" data-original="#000000" style=""/><path xmlns="http://www.w3.org/2000/svg" d="m208 268.6875h32v-64h-32zm0 0" fill="#1bb8c2" data-original="#000000" style=""/><path xmlns="http://www.w3.org/2000/svg" d="m192 204.6875h-61.398438c1.734376 2.367188 4.203126 4.101562 7.023438 4.929688l54.398438 16.320312zm0 0" fill="#1bb8c2" data-original="#000000" style=""/></g></svg>
